<svg width="105" height="40" viewBox="0 0 105 40" fill="none" xmlns="http://www.w3.org/2000/svg">
<path fill-rule="evenodd" clip-rule="evenodd" d="M37.1358 0.0180664H5.02583C2.41583 0.0180664 0.298828 2.12507 0.298828 4.72407V34.9881C0.298828 37.5881 2.41483 39.6941 5.02583 39.6941H37.1358C39.7468 39.6941 41.8638 37.5871 41.8638 34.9881V4.72407C41.8638 2.12407 39.7468 0.0180664 37.1358 0.0180664ZM9.77883 13.4671H13.4208C15.5058 13.4671 16.8128 14.6571 16.8128 16.5531C16.8128 18.4761 15.5758 19.6111 13.4628 19.6111H9.77883V13.4671ZM9.77883 22.8211H13.2128L16.9528 30.0591H21.7058L17.4798 22.1711C19.7878 21.2581 21.1218 19.0431 21.1218 16.4971C21.1218 12.5261 18.4118 10.0901 14.0048 10.0901H5.58083V30.0591H9.77883V22.8211ZM32.8468 20.8291C32.7638 18.8091 31.5408 17.5491 29.6498 17.5491C27.7728 17.5491 26.4528 18.8491 26.3138 20.8291H32.8468ZM29.8028 27.2911C31.4018 27.2911 32.4998 26.7241 32.9308 25.7131H36.6978C36.0858 28.5921 33.4448 30.3911 29.6918 30.3911C25.0218 30.3911 22.2688 27.4571 22.2688 22.5031C22.2688 17.5351 25.0768 14.4631 29.6358 14.4631C34.1538 14.4631 36.8228 17.3281 36.8228 22.1711V23.4021H26.2988V23.6101C26.3548 25.8801 27.6888 27.2901 29.8018 27.2901L29.8028 27.2911ZM45.9928 30.0581H50.0378V18.1161H53.2078V14.9481H49.9548V13.6881C49.9548 12.3881 50.5388 11.7651 52.1228 11.7651C52.6518 11.7651 53.0688 11.8061 53.3328 11.8341V8.98407C52.6432 8.876 51.9458 8.82483 51.2478 8.83107C47.5498 8.83107 45.9928 10.3671 45.9928 13.3971V14.9471H43.5188V18.1171H45.9928V30.0581ZM68.8258 22.4201C68.8258 27.4161 65.9898 30.3901 61.2778 30.3901C56.5658 30.3901 53.7298 27.4161 53.7298 22.4201C53.7298 17.4801 56.6068 14.4631 61.2778 14.4631C65.9478 14.4631 68.8258 17.4661 68.8258 22.4201ZM57.8858 22.4201C57.8858 25.3951 59.1088 27.0971 61.2778 27.0971C63.4318 27.0971 64.6698 25.3811 64.6698 22.4201C64.6698 19.4861 63.4188 17.7571 61.2778 17.7571C59.1228 17.7571 57.8858 19.4871 57.8858 22.4201ZM70.7058 30.0591H74.7508V21.6041C74.7508 19.4591 76.2668 18.1581 78.4768 18.1581C79.1298 18.1581 80.0748 18.2831 80.3948 18.4081V14.7401C80.0478 14.6151 79.3658 14.5461 78.8098 14.5461C76.8638 14.5461 75.2798 15.7091 74.8758 17.2311H74.6258V14.7951H70.7058V30.0591ZM85.8688 30.0591H81.8228V14.7951H85.7428V17.2861H85.9938C86.6188 15.5431 88.2178 14.4631 90.2328 14.4631C92.3878 14.4631 93.8618 15.5151 94.4728 17.2861H94.7228C95.4318 15.5841 97.1978 14.4631 99.3378 14.4631C102.397 14.4631 104.301 16.4431 104.301 19.5831V30.0591H100.256V20.6491C100.256 18.8361 99.4078 17.9371 97.6978 17.9371C96.0578 17.9371 95.0008 19.0991 95.0008 20.7181V30.0581H91.1088V20.4831C91.1088 18.8631 90.1638 17.9371 88.5788 17.9371C86.9938 17.9371 85.8688 19.1681 85.8688 20.8701V30.0591Z" fill="#1B1B1B"/>
</svg>
