<svg width="251" height="69" viewBox="0 0 251 69" fill="none" xmlns="http://www.w3.org/2000/svg">
<rect width="250.2" height="67.9996" transform="translate(0.600098 0.856445)" fill="white"/>
<path fill-rule="evenodd" clip-rule="evenodd" d="M71.355 17.6553C85.197 15.2253 89.185 17.8993 91.645 31.8153C94.108 45.7283 91.603 49.5453 77.439 52.0343C63.274 54.5213 59.612 51.7943 57.149 37.8763C54.685 23.9563 57.514 20.0883 71.355 17.6553ZM72.95 23.8033C70.3 24.2693 68.384 25.4813 67.282 27.2433C66.417 28.6273 66.141 30.2483 66.391 31.5613C66.943 34.4563 69.341 36.2783 74.2 36.6463L74.58 36.6733L74.957 36.7033L75.315 36.7373C77.009 36.9063 78.093 37.1933 78.691 37.5623C79.091 37.8073 79.251 38.0753 79.365 38.7243C79.583 39.9563 78.62 41.0723 76.085 41.5173C74.408 41.8123 72.618 41.4573 70.662 40.3943C70.1689 40.1267 69.5899 40.0651 69.0515 40.2231C68.5132 40.381 68.0593 40.7457 67.789 41.2373C67.6556 41.4805 67.5717 41.7477 67.5421 42.0236C67.5124 42.2994 67.5377 42.5783 67.6163 42.8443C67.6949 43.1104 67.8254 43.3582 68.0003 43.5736C68.1751 43.789 68.3908 43.9676 68.635 44.0993C71.395 45.5993 74.144 46.1433 76.821 45.6733C81.494 44.8523 84.196 41.7243 83.536 37.9913C82.908 34.4473 80.4 32.8653 74.865 32.4633L74.5 32.4373C72.718 32.3013 71.602 31.9563 71.013 31.5173C70.722 31.2993 70.614 31.1073 70.55 30.7753C70.495 30.4793 70.587 29.9363 70.875 29.4753C71.318 28.7693 72.18 28.2233 73.686 27.9593C75.021 27.7243 76.311 27.9493 77.633 28.6653C77.9386 28.8306 78.2802 28.9182 78.6277 28.9205C78.9751 28.9229 79.3179 28.8398 79.6257 28.6786C79.9335 28.5174 80.1971 28.2831 80.3931 27.9962C80.5891 27.7093 80.7117 27.3786 80.75 27.0333C80.7943 26.6179 80.714 26.1986 80.5191 25.8291C80.3243 25.4595 80.0238 25.1564 79.656 24.9583C77.507 23.7943 75.246 23.3993 72.95 23.8033Z" fill="#1B1B1B"/>
<path d="M106.637 41.1376C109.791 41.1376 112.001 39.4836 112.001 36.7026V36.6606C112.001 34.1976 110.371 33.0726 107.194 32.3096C104.297 31.6306 103.611 31.1206 103.611 29.9746V29.9316C103.611 28.9566 104.511 28.1716 106.058 28.1716C107.238 28.1716 108.353 28.5536 109.512 29.2966C109.727 29.4236 109.942 29.4876 110.199 29.4876C110.885 29.4876 111.443 28.9566 111.443 28.2776C111.443 27.7676 111.164 27.4066 110.863 27.2366C109.513 26.3456 107.988 25.8566 106.099 25.8566C103.118 25.8566 100.972 27.6186 100.972 30.1666V30.2086C100.972 32.9456 102.774 33.8796 105.972 34.6446C108.76 35.2806 109.361 35.8546 109.361 36.9146V36.9576C109.361 38.0596 108.331 38.8246 106.701 38.8246C105.07 38.8246 103.74 38.2746 102.495 37.2976C102.324 37.1706 102.088 37.0636 101.723 37.0636C101.037 37.0636 100.478 37.5936 100.478 38.2736C100.478 38.6976 100.692 39.0596 100.994 39.2706C102.624 40.4858 104.604 41.1407 106.637 41.1376ZM118.035 41.1606C119.773 41.1606 120.953 40.4386 121.725 39.5256V39.9496C121.725 40.5236 122.241 41.0326 122.992 41.0326C123.7 41.0326 124.257 40.5016 124.257 39.8016V34.2836C124.257 32.8186 123.871 31.6306 123.035 30.8236C122.241 30.0176 120.975 29.5716 119.28 29.5716C117.8 29.5716 116.705 29.8266 115.632 30.2306C115.428 30.3123 115.251 30.4523 115.125 30.6333C114.999 30.8143 114.93 31.0282 114.924 31.2486C114.924 31.8426 115.417 32.3086 116.019 32.3086C116.157 32.3067 116.294 32.2855 116.425 32.2456C117.133 31.9696 117.95 31.8006 118.936 31.8006C120.76 31.8006 121.748 32.6486 121.748 34.2416V34.5166C120.764 34.197 119.734 34.0393 118.699 34.0496C115.933 34.0496 114.023 35.2386 114.023 37.6576V37.7006C114.023 39.9506 115.911 41.1606 118.035 41.1606ZM118.765 39.2936C117.519 39.2936 116.555 38.6766 116.555 37.5936V37.5516C116.555 36.3836 117.541 35.6846 119.215 35.6846C120.245 35.6846 121.125 35.8746 121.789 36.1296V36.8946C121.789 38.3146 120.481 39.2916 118.764 39.2916L118.765 39.2936ZM131.685 41.1376C132.393 41.1376 132.865 40.6706 133.165 40.0116L136.942 31.4386C137.035 31.2466 137.086 31.0366 137.092 30.8226C137.092 30.1226 136.535 29.5926 135.827 29.5926C135.14 29.5926 134.797 30.0376 134.604 30.4826L131.643 37.9526L128.724 30.5266C128.51 29.9946 128.144 29.5926 127.437 29.5926C126.729 29.5926 126.15 30.1866 126.15 30.8226C126.15 31.0556 126.236 31.2686 126.3 31.4596L130.077 40.0116C130.377 40.6916 130.849 41.1366 131.556 41.1366H131.686L131.685 41.1376ZM143.899 41.1376C144.607 41.1376 145.079 40.6706 145.379 40.0116L149.156 31.4386C149.249 31.2466 149.3 31.0366 149.306 30.8226C149.306 30.1226 148.749 29.5926 148.041 29.5926C147.354 29.5926 147.011 30.0376 146.818 30.4826L143.856 37.9526L140.938 30.5266C140.723 29.9946 140.358 29.5926 139.651 29.5926C138.943 29.5926 138.364 30.1866 138.364 30.8226C138.364 31.0556 138.45 31.2686 138.514 31.4596L142.289 40.0116C142.591 40.6916 143.063 41.1366 143.771 41.1366L143.899 41.1376ZM153.452 44.3846C155.277 44.3846 156.306 43.5356 157.272 41.2446L161.413 31.4166C161.456 31.2896 161.52 31.0146 161.52 30.8016C161.52 30.1216 160.962 29.5916 160.276 29.5916C159.61 29.5916 159.245 30.0376 159.031 30.5676L156.199 38.0176L153.152 30.5676C152.916 29.9736 152.551 29.5926 151.886 29.5926C151.157 29.5926 150.599 30.1226 150.599 30.8446C150.599 31.0136 150.662 31.2686 150.749 31.4596L154.954 40.7556L154.868 40.9886C154.439 41.8586 154.032 42.1786 153.259 42.1786C152.894 42.1786 152.658 42.1136 152.358 42.0286C152.229 41.9866 152.101 41.9436 151.886 41.9436C151.676 41.9421 151.471 42.0037 151.296 42.1205C151.122 42.2373 150.987 42.4039 150.908 42.5986C150.857 42.728 150.832 42.8664 150.835 43.0056C150.835 43.6206 151.264 43.9396 151.65 44.0666C152.186 44.2776 152.723 44.3846 153.452 44.3846ZM171.223 41.1796C173.648 41.1796 175.257 40.4146 176.674 39.1856C176.808 39.0693 176.915 38.9258 176.989 38.7648C177.063 38.6037 177.102 38.4288 177.103 38.2516C177.103 37.5936 176.524 37.0416 175.858 37.0416C175.536 37.0416 175.257 37.1696 175.064 37.3376C173.97 38.2516 172.896 38.7596 171.309 38.7596C168.434 38.7596 166.352 36.4046 166.352 33.4976V33.4546C166.352 30.5466 168.456 28.2116 171.309 28.2116C172.747 28.2116 173.863 28.7216 174.892 29.5496C175.122 29.7192 175.401 29.8084 175.686 29.8036C176.417 29.8036 176.996 29.2526 176.996 28.5306C176.996 28.0636 176.759 27.7036 176.481 27.4906C175.171 26.4926 173.648 25.8146 171.33 25.8146C166.781 25.8146 163.585 29.2746 163.585 33.4976V33.5396C163.585 37.8046 166.846 41.1796 171.223 41.1796ZM183.008 41.1586C184.747 41.1586 185.926 40.4376 186.7 39.5246V39.9486C186.7 40.5226 187.214 41.0316 187.964 41.0316C188.673 41.0316 189.231 40.5006 189.231 39.8006V34.2826C189.231 32.8176 188.845 31.6296 188.007 30.8226C187.214 30.0166 185.948 29.5706 184.253 29.5706C182.772 29.5706 181.678 29.8256 180.605 30.2296C180.4 30.3112 180.224 30.4512 180.098 30.6322C179.972 30.8132 179.902 31.0272 179.896 31.2476C179.896 31.8416 180.391 32.3076 180.991 32.3076C181.129 32.3066 181.266 32.2846 181.398 32.2446C182.107 31.9686 182.922 31.7996 183.909 31.7996C185.733 31.7996 186.72 32.6476 186.72 34.2406V34.5156C185.737 34.1962 184.708 34.0385 183.673 34.0486C180.906 34.0486 178.995 35.2376 178.995 37.6566V37.6996C178.995 39.9496 180.884 41.1586 183.008 41.1586ZM183.737 39.2906C182.493 39.2906 181.528 38.6756 181.528 37.5926V37.5506C181.528 36.3826 182.515 35.6836 184.188 35.6836C185.219 35.6836 186.098 35.8736 186.763 36.1286V36.8936C186.763 38.3136 185.453 39.2906 183.737 39.2906ZM193.741 41.0306C194.471 41.0306 195.05 40.4806 195.05 39.7576V26.6006C195.05 25.9006 194.471 25.3276 193.741 25.3276C193.012 25.3276 192.453 25.8996 192.453 26.6006V39.7586C192.453 40.4816 193.034 41.0326 193.741 41.0326V41.0306Z" fill="#1B1B1B"/>
</svg>
