<svg width="251" height="58" viewBox="0 0 251 58" fill="none" xmlns="http://www.w3.org/2000/svg">
<rect width="250.2" height="57.429" transform="translate(0.799805 0.141602)" fill="white"/>
<path fill-rule="evenodd" clip-rule="evenodd" d="M81.6775 38.1286C81.6775 40.5716 80.8275 41.5706 78.5125 41.5706H57.9705C55.6545 41.5706 54.8055 40.5706 54.8055 38.1286V33.3716C54.8055 31.0776 53.7005 29.7816 52.6385 29.1876C52.5655 29.1433 52.505 29.0809 52.4631 29.0065C52.4212 28.932 52.3992 28.848 52.3992 28.7626C52.3992 28.6772 52.4212 28.5932 52.4631 28.5187C52.505 28.4443 52.5655 28.3819 52.6385 28.3376C53.7435 27.6366 54.8055 26.1706 54.8055 24.2166V19.5416C54.8055 16.9076 55.5275 16.1416 57.8425 16.1416H78.6405C80.9565 16.1416 81.6785 16.9076 81.6785 19.5416V24.2146C81.6785 26.1686 82.7405 27.6346 83.8445 28.3346C84.1645 28.5476 84.1645 28.9946 83.8445 29.1846C82.7825 29.8006 81.6785 31.0966 81.6785 33.3696V38.1276L81.6775 38.1286ZM62.2195 35.0066C63.8975 36.4716 65.7035 37.2156 68.1895 37.2156C72.0975 37.2156 74.6465 35.2616 74.6465 32.0956C74.6465 28.7436 71.6105 27.8886 69.1415 27.1936C67.4485 26.7166 66.0215 26.3136 66.0215 25.2336C66.0215 24.5336 66.7655 23.8536 68.0185 23.8536C69.2295 23.8536 70.2285 24.1096 71.1835 24.5976C71.5035 24.7466 71.7995 24.8526 72.0755 24.8526C72.4795 24.8526 72.7985 24.6616 73.0755 24.2796L73.4565 23.7056C73.6065 23.4936 73.6695 23.2596 73.6695 23.0056C73.6695 22.5796 73.4565 22.1556 73.1395 21.9426C71.8635 21.1356 70.1425 20.4556 67.8065 20.4556C64.4925 20.4556 61.9435 22.1976 61.9435 25.3196C61.9435 28.8096 65.0455 29.6966 67.5295 30.4046C69.1865 30.8776 70.5675 31.2716 70.5675 32.3086C70.5675 33.3066 69.6335 33.7956 68.4645 33.7956C67.0608 33.809 65.6852 33.4022 64.5145 32.6276C64.1525 32.3936 63.8125 32.2446 63.4515 32.2446C63.1325 32.2446 62.8565 32.3936 62.6015 32.7126L62.0915 33.3706C61.9015 33.5836 61.8375 33.8596 61.8375 34.1146C61.8375 34.4326 61.9435 34.7516 62.2195 35.0066ZM93.9555 33.0516C93.6795 33.0516 93.4455 33.1586 93.2335 33.4346L92.8085 34.0296C92.6385 34.2196 92.5955 34.4536 92.5955 34.6666C92.5955 34.9426 92.7015 35.2186 92.9355 35.4316C94.3375 36.6416 95.8675 37.2796 97.9705 37.2796C101.263 37.2796 103.431 35.6226 103.431 32.9666C103.431 30.1426 100.862 29.4216 98.7755 28.8356C97.3465 28.4336 96.1435 28.0956 96.1435 27.1896C96.1435 26.5736 96.7805 26.0196 97.8215 26.0196C98.7449 26.0167 99.6555 26.2359 100.477 26.6586L100.541 26.6826C100.793 26.7806 101.026 26.8706 101.241 26.8706C101.561 26.8706 101.837 26.7206 102.071 26.3806L102.411 25.8936C102.525 25.7089 102.584 25.495 102.581 25.2776C102.581 24.9166 102.411 24.5556 102.134 24.3856C101.051 23.6626 99.6055 23.1106 97.6305 23.1106C94.8475 23.1106 92.6805 24.5976 92.6805 27.2306C92.6805 30.1586 95.2955 30.9056 97.3925 31.5036C98.7955 31.9036 99.9665 32.2386 99.9665 33.1156C99.9665 33.9856 99.1805 34.3906 98.1825 34.3906C96.8865 34.3906 95.8025 34.0296 94.8475 33.3906C94.5715 33.1796 94.2315 33.0516 93.9555 33.0516ZM114.242 35.3466C114.245 35.1654 114.193 34.9875 114.093 34.8366L113.817 34.3906C113.562 33.9446 113.265 33.7746 112.882 33.7746C112.692 33.7746 112.479 33.8166 112.202 33.9226C111.927 34.0296 111.608 34.0716 111.247 34.0716C110.121 34.0716 109.632 33.0946 109.632 31.6286V26.7016H112.882C113.498 26.7016 114.008 26.1916 114.008 25.5756V24.5556C114.008 23.9406 113.498 23.4306 112.882 23.4306H109.632V20.7966C109.632 20.1806 109.122 19.6706 108.507 19.6706H107.297C106.68 19.6706 106.17 20.1806 106.17 20.7966V31.7566C106.17 35.2196 107.317 37.1956 110.355 37.1956C111.693 37.1956 112.713 36.9196 113.732 36.3026C114.072 36.1326 114.242 35.7286 114.242 35.3466ZM121.124 28.5916C118.384 28.5916 116.196 29.9936 116.196 32.9666C116.196 35.5796 117.959 37.1096 120.36 37.1306C122.186 37.1306 123.63 36.4296 124.353 35.4106V35.8556C124.353 36.4716 124.863 36.9816 125.479 36.9816H126.265C126.881 36.9816 127.391 36.4716 127.391 35.8556V28.7616C127.391 25.1936 126.011 23.1546 122.017 23.1546C120.637 23.1546 119.297 23.5146 118.129 24.0466C117.769 24.2166 117.492 24.6196 117.492 25.0026C117.497 25.125 117.524 25.2454 117.574 25.3576C117.59 25.4026 117.607 25.4476 117.619 25.4906L117.789 25.8506C118.002 26.2766 118.363 26.4896 118.809 26.4896C118.943 26.4896 119.09 26.4496 119.23 26.4116L119.34 26.3816C119.977 26.1706 120.636 26.0216 121.655 26.0216C123.525 26.0216 124.162 27.0836 124.162 29.0596V29.4636C123.503 28.9736 122.314 28.5926 121.124 28.5926V28.5916ZM121.804 30.9066C122.781 30.9066 123.546 31.1186 124.162 31.5656H124.183V32.9656C123.758 33.5406 123.015 34.1776 121.57 34.1776C120.466 34.1776 119.637 33.6046 119.637 32.5846C119.637 31.4376 120.657 30.9066 121.804 30.9066ZM138.714 35.3466C138.717 35.1653 138.664 34.9874 138.564 34.8366L138.288 34.3906C138.033 33.9446 137.736 33.7746 137.353 33.7746C137.163 33.7746 136.95 33.8166 136.673 33.9226C136.397 34.0296 136.079 34.0716 135.718 34.0716C134.592 34.0716 134.103 33.0946 134.103 31.6286V26.7016H137.353C137.969 26.7016 138.479 26.1916 138.479 25.5756V24.5556C138.479 23.9406 137.969 23.4306 137.353 23.4306H134.103V20.7966C134.103 20.1806 133.593 19.6706 132.977 19.6706H131.767C131.151 19.6706 130.641 20.1806 130.641 20.7966V31.7566C130.641 35.2196 131.788 37.1956 134.825 37.1956C136.165 37.1956 137.183 36.9196 138.203 36.3026C138.543 36.1326 138.714 35.7286 138.714 35.3466ZM145.595 28.5916C142.855 28.5916 140.667 29.9936 140.667 32.9666C140.667 35.5796 142.451 37.1096 144.83 37.1306C146.657 37.1306 148.102 36.4296 148.824 35.4106V35.8556C148.824 36.4716 149.334 36.9816 149.95 36.9816H150.736C151.352 36.9816 151.862 36.4716 151.862 35.8556V28.7616C151.862 25.1936 150.481 23.1546 146.487 23.1546C145.107 23.1546 143.768 23.5146 142.6 24.0466C142.24 24.2166 141.963 24.6196 141.963 25.0026C141.968 25.125 141.995 25.2453 142.045 25.3576C142.061 25.4026 142.078 25.4476 142.09 25.4906L142.26 25.8506C142.473 26.2766 142.834 26.4896 143.28 26.4896C143.414 26.4896 143.561 26.4496 143.7 26.4116L143.81 26.3816C144.448 26.1706 145.107 26.0216 146.126 26.0216C147.996 26.0216 148.633 27.0836 148.633 29.0596V29.4636C147.974 28.9736 146.785 28.5926 145.595 28.5926V28.5916ZM146.275 30.9066C147.252 30.9066 148.017 31.1186 148.633 31.5656H148.654V32.9656C148.229 33.5406 147.486 34.1776 146.041 34.1776C144.937 34.1776 144.108 33.6046 144.108 32.5846C144.108 31.4376 145.128 30.9066 146.275 30.9066ZM163.077 23.1966C161.42 23.1966 159.827 23.8546 158.871 24.9166H158.808V24.5336C158.808 23.9176 158.298 23.4076 157.682 23.4076H156.471C155.855 23.4076 155.345 23.9176 155.345 24.5336V35.8136C155.345 36.4296 155.855 36.9396 156.471 36.9396H157.682C158.298 36.9396 158.808 36.4296 158.808 35.8136V27.8686C159.424 26.9556 160.422 26.4246 161.633 26.4246C163.077 26.4246 163.863 27.3376 163.863 28.7616V35.7716C163.863 36.3866 164.373 36.8966 164.989 36.8966H166.2C166.816 36.8966 167.326 36.3866 167.326 35.7706V28.9516C167.326 28.7756 167.319 28.5556 167.314 28.3576C167.309 28.1956 167.304 28.0476 167.304 27.9526C167.772 27.0396 168.791 26.4026 170.087 26.4026C171.723 26.4026 172.403 27.3156 172.403 28.9926V35.8126C172.403 36.4286 172.912 36.9386 173.528 36.9386H174.739C175.355 36.9386 175.865 36.4286 175.865 35.8126V28.1226C175.865 24.4056 174.017 23.1946 171.553 23.1946C169.471 23.1946 167.963 24.0866 167.007 25.3616C166.519 24.1296 165.138 23.1946 163.077 23.1946V23.1966ZM181.685 20.7316C182.662 20.7316 183.661 19.9456 183.661 18.5646C183.661 17.3546 182.662 16.5686 181.685 16.5686C180.517 16.5686 179.519 17.3546 179.519 18.5646C179.519 19.9446 180.517 20.7316 181.685 20.7316ZM183.342 24.5556C183.342 23.9396 182.832 23.4296 182.216 23.4296V23.4076H181.006C180.39 23.4076 179.88 23.9176 179.88 24.5336V35.8136C179.88 36.4296 180.39 36.9396 181.006 36.9396H182.216C182.832 36.9396 183.342 36.4296 183.342 35.8136V24.5556ZM194.282 26.3396C195.153 26.3396 195.854 26.4886 196.661 26.8696C196.804 26.9496 196.959 26.9816 197.099 27.0096L197.234 27.0396C197.638 27.0396 198.02 26.7856 198.254 26.4036L198.7 25.6176C198.806 25.4676 198.828 25.2976 198.828 25.1276C198.828 24.7466 198.636 24.3006 198.297 24.1306C196.98 23.4076 195.663 23.1106 193.857 23.1106C189.736 23.1106 186.868 26.2546 186.868 30.1846C186.868 34.4326 189.821 37.2576 194.282 37.2576C195.96 37.2576 197.383 36.9606 198.998 35.6646C199.252 35.4736 199.401 35.0696 199.401 34.7086C199.401 34.4756 199.337 34.2416 199.189 34.0926L198.679 33.4556C198.566 33.316 198.424 33.2035 198.262 33.1263C198.1 33.0491 197.923 33.0092 197.744 33.0096C197.511 33.0096 197.256 33.0946 197.022 33.2436C196.236 33.7536 195.471 34.0296 194.409 34.0296C192.37 34.0296 190.522 32.5426 190.522 30.1636C190.522 27.8056 192.349 26.3396 194.282 26.3396Z" fill="#1B1B1B"/>
</svg>
