<svg width="159" height="42" viewBox="0 0 159 42" fill="none" xmlns="http://www.w3.org/2000/svg">
<path d="M55.5215 15.1781V12.6871H66.4775V15.1781H62.4015V29.0531H59.5675V15.1781H55.5215ZM73.6185 19.7551C73.1795 19.6771 72.7344 19.6383 72.2885 19.6391C70.4685 19.6391 69.3985 20.8271 69.3985 23.2311V29.0241H66.7085V17.5541H69.3395V19.1761H69.3975C69.9175 18.1911 71.0745 17.1761 72.6075 17.1761C73.0405 17.1761 73.3295 17.2061 73.6185 17.2351V19.7551ZM86.4845 29.0241H83.8825V27.5761H83.8245C83.0445 28.5611 81.8005 29.4591 79.8925 29.4591C77.3195 29.4591 74.3995 27.4021 74.3995 23.2891C74.3995 19.6391 76.9725 17.2061 80.0945 17.2061C82.0025 17.2061 83.1595 18.2191 83.8545 19.1171H83.9115V17.5531H86.5135V29.0241H86.4845ZM80.5865 27.0841C82.3495 27.0841 83.9975 25.5481 83.9975 23.3461C83.9975 21.0291 82.4945 19.4941 80.6155 19.4941C78.2455 19.4941 77.1165 21.4061 77.1165 23.2891C77.1165 25.2001 78.2165 27.0841 80.5865 27.0841ZM89.6075 17.5531H92.2675V19.0021H92.3245C93.2205 17.6981 94.5505 17.1771 95.8225 17.1771C98.1935 17.1771 100.275 18.7411 100.275 22.4201V29.0241H97.5855V22.5641C97.5855 20.5941 96.6615 19.5521 95.1285 19.5521C93.4515 19.5521 92.2955 20.7401 92.2955 22.9701V29.0531H89.6065L89.6075 17.5531ZM108.399 20.5081C108.283 19.6681 107.647 19.1181 106.866 19.1181C105.941 19.1181 105.421 19.6971 105.421 20.3341C105.421 21.0291 105.768 21.5221 107.762 22.1881C110.22 22.9701 111.087 24.2451 111.087 25.8671C111.087 27.9811 109.497 29.4591 106.866 29.4591C104.12 29.4591 102.761 27.9521 102.558 25.8091H105.045C105.16 26.7651 105.739 27.4891 106.924 27.4891C107.936 27.4891 108.514 26.8521 108.514 26.0691C108.514 25.2011 108.023 24.6501 106.115 24.0131C103.975 23.3181 102.876 22.2461 102.876 20.4501C102.876 18.5671 104.351 17.1771 106.779 17.1771C109.237 17.1771 110.538 18.6251 110.827 20.5071L108.399 20.5081ZM113.429 12.2811H116.407V15.0041H113.429V12.2811ZM113.574 17.5531H116.262V29.0531H113.574V17.5531ZM124.56 20.5081C124.444 19.6681 123.808 19.1181 123.027 19.1181C122.102 19.1181 121.582 19.6971 121.582 20.3341C121.582 21.0291 121.929 21.5221 123.924 22.1881C126.381 22.9701 127.248 24.2451 127.248 25.8671C127.248 27.9811 125.658 29.4591 123.027 29.4591C120.281 29.4591 118.922 27.9521 118.72 25.8091H121.206C121.322 26.7651 121.9 27.4891 123.085 27.4891C124.097 27.4891 124.675 26.8521 124.675 26.0691C124.675 25.2011 124.184 24.6501 122.276 24.0131C120.136 23.3181 119.038 22.2461 119.038 20.4501C119.038 18.5671 120.512 17.1771 122.941 17.1771C125.398 17.1771 126.699 18.6251 126.988 20.5071L124.56 20.5081ZM128.405 17.5531H129.85V13.8751H132.539V17.5531H135.401V19.8131H132.51V24.9401C132.51 26.5041 133.002 26.9391 134.1 26.9391C134.563 26.9391 135.083 26.8521 135.488 26.7361V28.9081C134.881 29.0821 134.129 29.1691 133.464 29.1691C130.602 29.1691 129.85 27.4311 129.85 25.0851V19.8131H128.405V17.5531ZM142.716 17.1771C146.301 17.1771 148.845 19.8131 148.845 23.2891C148.845 26.6781 146.272 29.4591 142.716 29.4591C139.218 29.4591 136.587 26.7651 136.587 23.2891C136.587 19.7261 139.247 17.1771 142.716 17.1771ZM142.716 27.0541C144.74 27.0541 146.127 25.4321 146.127 23.2891C146.127 21.2611 144.826 19.5521 142.716 19.5521C140.663 19.5521 139.304 21.1451 139.304 23.2891C139.304 25.4901 140.866 27.0541 142.716 27.0541ZM156.768 19.6391C154.946 19.6391 153.877 20.8271 153.877 23.2311V29.0241H151.188V17.5541H153.819V19.1761H153.877C154.397 18.1911 155.553 17.1761 157.086 17.1761C157.519 17.1761 157.808 17.2061 158.098 17.2351V19.7551C157.659 19.6771 157.214 19.6382 156.768 19.6391ZM20.9135 34.7311C20.5452 34.7305 20.1921 34.5839 19.9319 34.3232C19.6717 34.0626 19.5255 33.7094 19.5255 33.3411V8.37006C19.5259 8.09581 19.6076 7.82782 19.7601 7.59989C19.9126 7.37196 20.1292 7.19429 20.3826 7.08927C20.636 6.98425 20.9147 6.95658 21.1838 7.00975C21.4528 7.06293 21.7001 7.19456 21.8945 7.38806C22.1545 7.64806 22.3005 8.00206 22.3005 8.37006V33.3401C22.3005 34.0931 21.6645 34.7311 20.9135 34.7311ZM15.1315 22.2471H8.48148C8.11335 22.2463 7.76057 22.0995 7.50054 21.8389C7.24052 21.5783 7.09448 21.2252 7.09448 20.8571C7.09448 20.0741 7.70148 19.4661 8.48248 19.4661H15.1325C15.5011 19.4661 15.8547 19.6125 16.1154 19.8732C16.376 20.1339 16.5225 20.4874 16.5225 20.8561C16.5225 21.2247 16.376 21.5783 16.1154 21.8389C15.8547 22.0996 15.5011 22.2461 15.1325 22.2461L15.1315 22.2471ZM33.3745 22.2471H26.6965C26.3282 22.2465 25.9751 22.0999 25.7149 21.8392C25.4547 21.5786 25.3085 21.2254 25.3085 20.8571C25.3085 20.0741 25.9155 19.4661 26.6965 19.4661H33.3465C33.7146 19.4669 34.0674 19.6137 34.3274 19.8742C34.5875 20.1348 34.7335 20.4879 34.7335 20.8561C34.7335 21.6381 34.1265 22.2471 33.3745 22.2471Z" fill="#1B1B1B"/>
<path d="M20.9176 41.712C9.43956 41.712 0.101562 32.356 0.101562 20.856C0.101562 9.356 9.43956 0 20.9176 0C32.3956 0 41.7336 9.356 41.7336 20.856C41.7336 32.356 32.3956 41.712 20.9176 41.712ZM20.9176 2.781C10.9726 2.781 2.87756 10.891 2.87756 20.856C2.87756 30.821 10.9726 38.931 20.9176 38.931C30.8636 38.931 38.9576 30.821 38.9576 20.856C38.9576 10.891 30.8636 2.781 20.9176 2.781Z" fill="#1B1B1B"/>
</svg>
