<svg width="251" height="72" viewBox="0 0 251 72" fill="none" xmlns="http://www.w3.org/2000/svg">
<rect width="250.2" height="71" transform="translate(0.399902 0.355957)" fill="white"/>
<path fill-rule="evenodd" clip-rule="evenodd" d="M89.502 16.356L71.502 22.356V41.856L77.502 43.856V49.356L95.502 55.356V23.856L89.502 25.856V16.356ZM79.502 44.523L89.502 47.856V27.964L93.502 26.631V52.581L79.502 47.916V44.523Z" fill="#1B1B1B"/>
<path d="M107.012 32.1498V42.6998H111.459V32.1498H114.989V28.7578H103.502V32.1508L107.012 32.1498ZM117.218 36.9478C117.218 40.9258 119.518 42.9538 123.594 42.9538C127.494 42.9538 129.99 41.1008 129.99 36.9088V28.7588H125.544V36.7528C125.544 38.5858 125.154 39.4828 123.594 39.4828C122.014 39.4828 121.624 38.5858 121.624 36.7728V28.7578H117.218V36.9478Z" fill="#1B1B1B"/>
<path fill-rule="evenodd" clip-rule="evenodd" d="M137.99 42.8268V28.8848H143.548C147.565 28.8848 149.281 30.6788 149.281 33.6618V33.7398C149.281 36.6458 147.351 38.2838 143.743 38.2838H142.397V42.8268H137.99ZM143.313 35.3198H142.397V32.1798H143.333C144.483 32.1798 145.088 32.6098 145.088 33.6818V33.7598C145.088 34.7928 144.483 35.3198 143.313 35.3198Z" fill="#1B1B1B"/>
<path d="M157.281 42.8268V28.8848H161.708V39.4148H166.778V42.8268H157.281ZM169.28 28.8848V42.8268H179.498V39.4338H173.687V37.3478H178.055V34.2478H173.687V32.2778H179.186V28.8848H169.28Z" fill="#1B1B1B"/>
</svg>
